REM DIRINDEX 1\2\3,1\2\4,1\2\5,1\2\6
REM DIRNAME cjc157,folder01,folder02,folder03,folder04,folder05
TITLE ""
FILE "084 084.mp3" MP3
  TRACK 01 AUDIO
    TITLE "0:"
    INDEX 01 00:00:00
  TRACK 02 AUDIO
    TITLE "3:cjc157_3165"
    INDEX 01 00:00:11
  TRACK 03 AUDIO
    TITLE "0:"
    INDEX 01 00:01:38
  TRACK 04 AUDIO
    TITLE "4:cjc157_3166"
    INDEX 01 00:02:12
  TRACK 05 AUDIO
    TITLE "0:"
    INDEX 01 00:03:25
  TRACK 06 AUDIO
    TITLE "5:cjc157_3167"
    INDEX 01 00:04:03
  TRACK 07 AUDIO
    TITLE "0:"
    INDEX 01 00:06:26
  TRACK 08 AUDIO
    TITLE "5:cjc157_3168"
    INDEX 01 00:06:69
  TRACK 09 AUDIO
    TITLE "0:"
    INDEX 01 00:08:23
  TRACK 10 AUDIO
    TITLE "3:cjc157_3169"
    INDEX 01 00:08:68
  TRACK 11 AUDIO
    TITLE "0:"
    INDEX 01 00:09:63
  TRACK 12 AUDIO
    TITLE "4:cjc157_3170"
    INDEX 01 00:10:33
  TRACK 13 AUDIO
    TITLE "0:"
    INDEX 01 00:11:33
  TRACK 14 AUDIO
    TITLE "5:cjc157_3171"
    INDEX 01 00:12:05
  TRACK 15 AUDIO
    TITLE "0:"
    INDEX 01 00:13:63
  TRACK 16 AUDIO
    TITLE "3:cjc157_3172"
    INDEX 01 00:14:39
  TRACK 17 AUDIO
    TITLE "0:"
    INDEX 01 00:15:54
  TRACK 18 AUDIO
    TITLE "4:cjc157_3173"
    INDEX 01 00:16:24
  TRACK 19 AUDIO
    TITLE "0:"
    INDEX 01 00:17:31
  TRACK 20 AUDIO
    TITLE "5:cjc157_3174"
    INDEX 01 00:18:03
  TRACK 21 AUDIO
    TITLE "0:"
    INDEX 01 00:19:60
  TRACK 22 AUDIO
    TITLE "3:cjc157_3175"
    INDEX 01 00:20:36
  TRACK 23 AUDIO
    TITLE "0:"
    INDEX 01 00:21:29
  TRACK 24 AUDIO
    TITLE "4:cjc157_3176"
    INDEX 01 00:22:01
  TRACK 25 AUDIO
    TITLE "0:"
    INDEX 01 00:23:10
  TRACK 26 AUDIO
    TITLE "5:cjc157_3177"
    INDEX 01 00:23:57
  TRACK 27 AUDIO
    TITLE "0:"
    INDEX 01 00:26:24
  TRACK 28 AUDIO
    TITLE "3:cjc157_3178"
    INDEX 01 00:26:71
  TRACK 29 AUDIO
    TITLE "0:"
    INDEX 01 00:28:02
  TRACK 30 AUDIO
    TITLE "4:cjc157_3179"
    INDEX 01 00:28:47
  TRACK 31 AUDIO
    TITLE "0:"
    INDEX 01 00:29:72
  TRACK 32 AUDIO
    TITLE "5:cjc157_3180"
    INDEX 01 00:30:40
  TRACK 33 AUDIO
    TITLE "0:"
    INDEX 01 00:32:31
  TRACK 34 AUDIO
    TITLE "5:cjc157_3181"
    INDEX 01 00:33:09
  TRACK 35 AUDIO
    TITLE "0:"
    INDEX 01 00:35:23
  TRACK 36 AUDIO
    TITLE "3:cjc157_3182"
    INDEX 01 00:35:68
  TRACK 37 AUDIO
    TITLE "0:"
    INDEX 01 00:37:26
  TRACK 38 AUDIO
    TITLE "4:cjc157_3183"
    INDEX 01 00:37:73
  TRACK 39 AUDIO
    TITLE "0:"
    INDEX 01 00:39:07
  TRACK 40 AUDIO
    TITLE "5:cjc157_3184"
    INDEX 01 00:39:51
  TRACK 41 AUDIO
    TITLE "0:"
    INDEX 01 00:41:04
  TRACK 42 AUDIO
    TITLE "5:cjc157_3185"
    INDEX 01 00:41:51
  TRACK 43 AUDIO
    TITLE "0:"
    INDEX 01 00:43:23
  TRACK 44 AUDIO
    TITLE "5:cjc157_3186"
    INDEX 01 00:43:66
  TRACK 45 AUDIO
    TITLE "0:"
    INDEX 01 00:47:52
  TRACK 46 AUDIO
    TITLE "3:cjc157_3187"
    INDEX 01 00:48:22
  TRACK 47 AUDIO
    TITLE "0:"
    INDEX 01 00:49:18
  TRACK 48 AUDIO
    TITLE "4:cjc157_3188"
    INDEX 01 00:49:63
  TRACK 49 AUDIO
    TITLE "0:"
    INDEX 01 00:50:68
  TRACK 50 AUDIO
    TITLE "5:cjc157_3189"
    INDEX 01 00:51:38
  TRACK 51 AUDIO
    TITLE "0:"
    INDEX 01 00:53:43
  TRACK 52 AUDIO
    TITLE "5:cjc157_3190"
    INDEX 01 00:54:11
  TRACK 53 AUDIO
    TITLE "0:"
    INDEX 01 00:56:24
  TRACK 54 AUDIO
    TITLE "3:cjc157_3191"
    INDEX 01 00:56:69
  TRACK 55 AUDIO
    TITLE "0:"
    INDEX 01 00:58:18
  TRACK 56 AUDIO
    TITLE "4:cjc157_3192"
    INDEX 01 00:58:66
  TRACK 57 AUDIO
    TITLE "0:"
    INDEX 01 00:59:67
  TRACK 58 AUDIO
    TITLE "5:cjc157_3193"
    INDEX 01 01:00:39
  TRACK 59 AUDIO
    TITLE "0:"
    INDEX 01 01:02:73
  TRACK 60 AUDIO
    TITLE "5:cjc157_3194"
    INDEX 01 01:03:41
  TRACK 61 AUDIO
    TITLE "0:"
    INDEX 01 01:05:07
  TRACK 62 AUDIO
    TITLE "3:cjc157_3195"
    INDEX 01 01:05:54
  TRACK 63 AUDIO
    TITLE "0:"
    INDEX 01 01:06:73
  TRACK 64 AUDIO
    TITLE "4:cjc157_3196"
    INDEX 01 01:07:45
  TRACK 65 AUDIO
    TITLE "0:"
    INDEX 01 01:08:60
  TRACK 66 AUDIO
    TITLE "5:cjc157_3197"
    INDEX 01 01:09:34
  TRACK 67 AUDIO
    TITLE "0:"
    INDEX 01 01:12:28
  TRACK 68 AUDIO
    TITLE "3:cjc157_3198"
    INDEX 01 01:13:02
  TRACK 69 AUDIO
    TITLE "0:"
    INDEX 01 01:14:16
  TRACK 70 AUDIO
    TITLE "4:cjc157_3199"
    INDEX 01 01:14:61
  TRACK 71 AUDIO
    TITLE "0:"
    INDEX 01 01:15:64
  TRACK 72 AUDIO
    TITLE "5:cjc157_3200"
    INDEX 01 01:16:38
  TRACK 73 AUDIO
    TITLE "0:"
    INDEX 01 01:19:13
  TRACK 74 AUDIO
    TITLE "5:cjc157_3201"
    INDEX 01 01:19:52
  TRACK 75 AUDIO
    TITLE "0:"
    INDEX 01 01:22:17
